<svg width="10" height="13" viewBox="0 0 10 13" fill="none" xmlns="http://www.w3.org/2000/svg">
<path d="M9.50049 5.5C9.50049 9 5.00049 12 5.00049 12C5.00049 12 0.500488 9 0.500488 5.5C0.500488 4.30653 0.974594 3.16193 1.81851 2.31802C2.66242 1.47411 3.80701 1 5.00049 1C6.19396 1 7.33855 1.47411 8.18247 2.31802C9.02638 3.16193 9.50049 4.30653 9.50049 5.5Z" stroke="black" stroke-linecap="round" stroke-linejoin="round"/>
<path d="M5.00049 7C5.82892 7 6.50049 6.32843 6.50049 5.5C6.50049 4.67157 5.82892 4 5.00049 4C4.17206 4 3.50049 4.67157 3.50049 5.5C3.50049 6.32843 4.17206 7 5.00049 7Z" stroke="black" stroke-linecap="round" stroke-linejoin="round"/>
</svg>
