<svg width="26" height="26" viewBox="0 0 26 26" fill="none" xmlns="http://www.w3.org/2000/svg">
<circle cx="13" cy="13" r="13" fill="#CBEAAB"/>
<path d="M18 12C18 15.8889 13 19.2222 13 19.2222C13 19.2222 8 15.8889 8 12C8 10.6739 8.52678 9.40215 9.46447 8.46447C10.4021 7.52678 11.6739 7 13 7C14.3261 7 15.5979 7.52678 16.5355 8.46447C17.4732 9.40215 18 10.6739 18 12Z" stroke="#353535" stroke-width="0.769231" stroke-linecap="round" stroke-linejoin="round"/>
<path d="M12.9999 13.6667C13.9204 13.6667 14.6666 12.9205 14.6666 12C14.6666 11.0795 13.9204 10.3333 12.9999 10.3333C12.0794 10.3333 11.3333 11.0795 11.3333 12C11.3333 12.9205 12.0794 13.6667 12.9999 13.6667Z" stroke="#353535" stroke-width="0.769231" stroke-linecap="round" stroke-linejoin="round"/>
</svg>
