<svg width="30" height="39" viewBox="0 0 30 39" fill="none" xmlns="http://www.w3.org/2000/svg">
<path d="M7.2973 7.37689H25.9459V25.4093H7.2973V7.37689Z" fill="white"/>
<path d="M14.9999 39C12.2934 36.6662 9.78464 34.1076 7.49996 31.3511C4.07141 27.2114 1.89355e-06 21.0464 1.89355e-06 15.1716C-0.00303701 9.03586 3.65194 3.503 9.25939 1.15483C14.8668 -1.19333 21.3215 0.106042 25.6113 4.44663C28.4323 7.28569 30.0125 11.1476 29.9999 15.1716C29.9999 21.0464 25.9284 27.2114 22.4999 31.3511C20.2152 34.1076 17.7065 36.6662 14.9999 39ZM14.9999 8.67292C12.7032 8.67292 10.581 9.91156 9.43265 11.9223C8.2843 13.9329 8.2843 16.4102 9.43265 18.4209C10.581 20.4316 12.7032 21.6702 14.9999 21.6702C18.5503 21.6702 21.4285 18.7607 21.4285 15.1716C21.4285 11.5825 18.5503 8.67292 14.9999 8.67292Z" fill="#77C628"/>
</svg>
