<svg width="18" height="17" viewBox="0 0 18 17" fill="none" xmlns="http://www.w3.org/2000/svg">
<path d="M2.73047 3.06252H15.2305C15.3765 3.06245 15.5224 3.07171 15.6672 3.09025C15.6181 2.74563 15.4997 2.41452 15.3192 2.11689C15.1387 1.81925 14.8998 1.56126 14.6168 1.35846C14.3339 1.15565 14.0129 1.01225 13.673 0.936882C13.3332 0.861517 12.9816 0.855753 12.6395 0.919939L2.35938 2.67502H2.34766C1.70237 2.79841 1.12854 3.1635 0.743359 3.69572C1.32367 3.28296 2.01834 3.0616 2.73047 3.06252ZM15.2305 4.00002H2.73047C2.06765 4.00074 1.43219 4.26436 0.963501 4.73305C0.494817 5.20173 0.231193 5.8372 0.230469 6.50002V14C0.231193 14.6628 0.494817 15.2983 0.963501 15.767C1.43219 16.2357 2.06765 16.4993 2.73047 16.5H15.2305C15.8933 16.4993 16.5288 16.2357 16.9974 15.767C17.4661 15.2983 17.7297 14.6628 17.7305 14V6.50002C17.7297 5.8372 17.4661 5.20173 16.9974 4.73305C16.5288 4.26436 15.8933 4.00074 15.2305 4.00002ZM13.375 11.5C13.1278 11.5 12.8861 11.4267 12.6805 11.2894C12.475 11.152 12.3148 10.9568 12.2201 10.7284C12.1255 10.5 12.1008 10.2486 12.149 10.0062C12.1972 9.76368 12.3163 9.54095 12.4911 9.36613C12.6659 9.19132 12.8887 9.07227 13.1311 9.02404C13.3736 8.9758 13.6249 9.00056 13.8534 9.09517C14.0818 9.18978 14.277 9.34999 14.4143 9.55555C14.5517 9.76112 14.625 10.0028 14.625 10.25C14.625 10.5815 14.4933 10.8995 14.2589 11.1339C14.0245 11.3683 13.7065 11.5 13.375 11.5Z" fill="#007AFE"/>
</svg>
