<svg width="212" height="60" viewBox="0 0 212 60" fill="none" xmlns="http://www.w3.org/2000/svg">
<path d="M138.3 21.35C141.167 21.35 143.483 22.2667 145.25 24.1C147.017 25.9333 147.9 28.45 147.9 31.65V47H142.5V32.2C142.5 30.3333 142 28.9 141 27.9C140 26.9 138.633 26.4 136.9 26.4C135 26.4 133.467 27 132.3 28.2C131.133 29.3667 130.55 31.1667 130.55 33.6V47H125.15V22H130.55V25.2C132.183 22.6333 134.767 21.35 138.3 21.35ZM173.514 12H178.914V47H173.514V43.4C171.481 46.2333 168.564 47.65 164.764 47.65C161.331 47.65 158.398 46.3833 155.964 43.85C153.531 41.2833 152.314 38.1667 152.314 34.5C152.314 30.8 153.531 27.6833 155.964 25.15C158.398 22.6167 161.331 21.35 164.764 21.35C168.564 21.35 171.481 22.75 173.514 25.55V12ZM159.964 40.25C161.464 41.75 163.348 42.5 165.614 42.5C167.881 42.5 169.764 41.75 171.264 40.25C172.764 38.7167 173.514 36.8 173.514 34.5C173.514 32.2 172.764 30.3 171.264 28.8C169.764 27.2667 167.881 26.5 165.614 26.5C163.348 26.5 161.464 27.2667 159.964 28.8C158.464 30.3 157.714 32.2 157.714 34.5C157.714 36.8 158.464 38.7167 159.964 40.25ZM197.008 47.65C193.342 47.65 190.225 46.3833 187.658 43.85C185.092 41.3167 183.808 38.2 183.808 34.5C183.808 30.8 185.092 27.6833 187.658 25.15C190.225 22.6167 193.342 21.35 197.008 21.35C200.708 21.35 203.825 22.6167 206.358 25.15C208.925 27.6833 210.208 30.8 210.208 34.5C210.208 38.2 208.925 41.3167 206.358 43.85C203.825 46.3833 200.708 47.65 197.008 47.65ZM191.458 40.15C192.958 41.65 194.808 42.4 197.008 42.4C199.208 42.4 201.058 41.65 202.558 40.15C204.058 38.65 204.808 36.7667 204.808 34.5C204.808 32.2333 204.058 30.35 202.558 28.85C201.058 27.35 199.208 26.6 197.008 26.6C194.808 26.6 192.958 27.35 191.458 28.85C189.958 30.35 189.208 32.2333 189.208 34.5C189.208 36.7667 189.958 38.65 191.458 40.15Z" fill="#007AFE"/>
<path d="M19.0002 27.7029C18.0728 28.7802 18.0002 31.7028 18.0002 31.7028C18.0002 31.7028 20.947 32.0251 22.5002 31.2029C23.4764 30.686 23.9833 30.1791 24.5002 29.2029C25.0559 28.1531 25.0002 26.2028 25.0002 26.2028C25.0002 26.2028 22.6438 25.8354 21.5002 26.0896C20.2215 26.3737 19.8547 26.7101 19.0002 27.7029Z" fill="#007AFE"/>
<path d="M10.4639 21.056C8.51636 18.9083 2.86416 18.0677 2.86416 18.0677C2.86416 18.0677 2.50691 21.641 3.48682 25.0314C4.10273 27.1624 6.20205 29.5584 8.47439 29.5107C12.5842 29.4243 12.5151 33.5175 12.5151 33.5175C12.5151 33.5175 13.4618 33.8381 13.4606 31.503C13.4568 24.5393 12.4545 23.2511 10.4639 21.056Z" fill="#007AFE"/>
<path d="M8.97485 17.0489C9.44421 18.3907 11.9389 19.9149 11.9389 19.9149C11.9389 19.9149 13.6915 17.524 13.7559 15.7678C13.7965 14.664 13.6109 13.9714 13.0239 13.0357C12.3927 12.0296 10.6758 11.1027 10.6758 11.1027C10.6758 11.1027 9.17947 12.9597 8.82773 14.0772C8.43448 15.3266 8.54237 15.8125 8.97485 17.0489Z" fill="#007AFE"/>
<path fill-rule="evenodd" clip-rule="evenodd" d="M46.8001 31.3001V28.9001H29.3001V34.0501H41.0001C40.4668 36.4834 39.2168 38.4334 37.2501 39.9001C35.3168 41.3334 32.8001 42.0501 29.7001 42.0501C25.8335 42.0501 22.7001 40.8668 20.3001 38.5001C18.9869 37.1868 18.038 35.6837 17.4534 33.9907C16.4048 33.7751 15.9856 33.4856 15.0001 32.5001C14.5023 32.0023 13.5001 30.5001 13.5001 30.5001C13.5001 30.5001 13.1963 27.9807 13.0001 27.0001C12.7651 25.825 12.5301 24.9813 12.347 24.4171C12.2225 24.1991 12.0858 23.8981 11.9364 23.5001C11.3122 25.3604 11.0001 27.3604 11.0001 29.5001C11.0001 34.6001 12.7501 38.9001 16.2501 42.4001C19.7835 45.9001 24.2501 47.6501 29.6501 47.6501C34.7501 47.6501 38.8835 46.1334 42.0501 43.1001C45.2168 40.0334 46.8001 36.1001 46.8001 31.3001ZM13.5058 20.5214C13.5837 20.8177 14.4453 24.1427 14.5001 26.5001C14.5322 27.8805 14.5001 30.0001 14.5001 30.0001C14.5001 30.0001 14.6668 31.0001 16.5001 31.5001C16.6156 31.5316 16.7464 31.5502 16.8816 31.5599C16.8789 31.54 16.8763 31.5201 16.8736 31.5001C16.7913 30.8716 16.7501 30.2216 16.7501 29.5501C16.7501 25.9501 17.9335 22.9501 20.3001 20.5501C22.6668 18.1501 25.6835 16.9501 29.3501 16.9501C31.6168 16.9501 33.6668 17.4668 35.5001 18.5001C37.3335 19.5001 38.7168 20.8334 39.6501 22.5001L44.6001 19.6501C43.1001 17.1168 41.0001 15.1001 38.3001 13.6001C35.6001 12.1001 32.6168 11.3501 29.3501 11.3501C24.1501 11.3501 19.7835 13.1168 16.2501 16.6501C15.0516 17.8487 14.2537 19.1391 13.5058 20.5214ZM64.8068 21.5501C61.0401 21.5501 58.4734 23.1001 57.1068 26.2001V22.0001H51.7068V47.0001H57.1068V34.4001C57.1068 31.8334 57.8735 30.0001 59.4068 28.9001C60.9401 27.7668 62.7401 27.2668 64.8068 27.4001V21.5501ZM71.8748 36.8001C72.2748 38.7001 73.1914 40.1668 74.6247 41.2001C76.0581 42.2001 77.8081 42.7001 79.8748 42.7001C82.7414 42.7001 84.8914 41.6668 86.3248 39.6001L90.7748 42.2001C88.3081 45.8334 84.6581 47.6501 79.8248 47.6501C75.7581 47.6501 72.4748 46.4168 69.9748 43.9501C67.4748 41.4501 66.2248 38.3001 66.2248 34.5001C66.2248 30.7668 67.4581 27.6501 69.9248 25.1501C72.3914 22.6168 75.5581 21.3501 79.4248 21.3501C83.0914 21.3501 86.0914 22.6334 88.4248 25.2001C90.7914 27.7668 91.9748 30.8834 91.9748 34.5501C91.9748 35.1168 91.9081 35.8668 91.7747 36.8001H71.8748ZM71.8248 32.4001H86.5247C86.1581 30.3668 85.3081 28.8334 83.9748 27.8001C82.6748 26.7668 81.1414 26.2501 79.3748 26.2501C77.3748 26.2501 75.7081 26.8001 74.3747 27.9001C73.0414 29.0001 72.1914 30.5001 71.8248 32.4001ZM103.58 41.2001C102.146 40.1668 101.23 38.7001 100.83 36.8001H120.73C120.863 35.8668 120.93 35.1168 120.93 34.5501C120.93 30.8834 119.747 27.7668 117.38 25.2001C115.047 22.6334 112.047 21.3501 108.38 21.3501C104.513 21.3501 101.346 22.6168 98.8798 25.1501C96.4132 27.6501 95.1798 30.7668 95.1798 34.5001C95.1798 38.3001 96.4298 41.4501 98.9298 43.9501C101.43 46.4168 104.713 47.6501 108.78 47.6501C113.613 47.6501 117.263 45.8334 119.73 42.2001L115.28 39.6001C113.846 41.6668 111.697 42.7001 108.83 42.7001C106.763 42.7001 105.013 42.2001 103.58 41.2001ZM115.48 32.4001H100.78C101.146 30.5001 101.996 29.0001 103.33 27.9001C104.663 26.8001 106.33 26.2501 108.33 26.2501C110.097 26.2501 111.63 26.7668 112.93 27.8001C114.263 28.8334 115.113 30.3668 115.48 32.4001Z" fill="#007AFE"/>
</svg>
