<svg width="212" height="60" viewBox="0 0 212 60" fill="none" xmlns="http://www.w3.org/2000/svg">
<path d="M138.3 21.35C141.167 21.35 143.483 22.2667 145.25 24.1C147.017 25.9333 147.9 28.45 147.9 31.65V47H142.5V32.2C142.5 30.3333 142 28.9 141 27.9C140 26.9 138.633 26.4 136.9 26.4C135 26.4 133.467 27 132.3 28.2C131.133 29.3667 130.55 31.1667 130.55 33.6V47H125.15V22H130.55V25.2C132.183 22.6333 134.767 21.35 138.3 21.35ZM173.514 12H178.914V47H173.514V43.4C171.481 46.2333 168.564 47.65 164.764 47.65C161.331 47.65 158.398 46.3833 155.964 43.85C153.531 41.2833 152.314 38.1667 152.314 34.5C152.314 30.8 153.531 27.6833 155.964 25.15C158.398 22.6167 161.331 21.35 164.764 21.35C168.564 21.35 171.481 22.75 173.514 25.55V12ZM159.964 40.25C161.464 41.75 163.348 42.5 165.614 42.5C167.881 42.5 169.764 41.75 171.264 40.25C172.764 38.7167 173.514 36.8 173.514 34.5C173.514 32.2 172.764 30.3 171.264 28.8C169.764 27.2667 167.881 26.5 165.614 26.5C163.348 26.5 161.464 27.2667 159.964 28.8C158.464 30.3 157.714 32.2 157.714 34.5C157.714 36.8 158.464 38.7167 159.964 40.25ZM197.008 47.65C193.342 47.65 190.225 46.3833 187.658 43.85C185.092 41.3167 183.808 38.2 183.808 34.5C183.808 30.8 185.092 27.6833 187.658 25.15C190.225 22.6167 193.342 21.35 197.008 21.35C200.708 21.35 203.825 22.6167 206.358 25.15C208.925 27.6833 210.208 30.8 210.208 34.5C210.208 38.2 208.925 41.3167 206.358 43.85C203.825 46.3833 200.708 47.65 197.008 47.65ZM191.458 40.15C192.958 41.65 194.808 42.4 197.008 42.4C199.208 42.4 201.058 41.65 202.558 40.15C204.058 38.65 204.808 36.7667 204.808 34.5C204.808 32.2333 204.058 30.35 202.558 28.85C201.058 27.35 199.208 26.6 197.008 26.6C194.808 26.6 192.958 27.35 191.458 28.85C189.958 30.35 189.208 32.2333 189.208 34.5C189.208 36.7667 189.958 38.65 191.458 40.15Z" fill="#007AFE"/>
<path d="M19.0001 27.7029C18.0728 28.7802 18.0001 31.7028 18.0001 31.7028C18.0001 31.7028 20.947 32.0251 22.5001 31.2029C23.4763 30.686 23.9833 30.1791 24.5001 29.2029C25.0558 28.1531 25.0001 26.2028 25.0001 26.2028C25.0001 26.2028 22.6438 25.8354 21.5001 26.0896C20.2215 26.3737 19.8546 26.7101 19.0001 27.7029Z" fill="#007AFE"/>
<path d="M10.4639 21.056C8.51636 18.9083 2.86416 18.0677 2.86416 18.0677C2.86416 18.0677 2.50691 21.641 3.48682 25.0314C4.10273 27.1624 6.20205 29.5584 8.47439 29.5107C12.5842 29.4243 12.5151 33.5175 12.5151 33.5175C12.5151 33.5175 13.4618 33.8381 13.4606 31.503C13.4568 24.5393 12.4545 23.2511 10.4639 21.056Z" fill="#007AFE"/>
<path d="M8.97484 17.0489C9.44419 18.3907 11.9389 19.9149 11.9389 19.9149C11.9389 19.9149 13.6914 17.524 13.7559 15.7678C13.7965 14.664 13.6109 13.9714 13.0239 13.0357C12.3927 12.0296 10.6758 11.1027 10.6758 11.1027C10.6758 11.1027 9.17945 12.9597 8.82772 14.0772C8.43446 15.3266 8.54235 15.8125 8.97484 17.0489Z" fill="#007AFE"/>
<path fill-rule="evenodd" clip-rule="evenodd" d="M46.8001 31.3V28.9H29.3001V34.05H41.0001C40.4668 36.4833 39.2168 38.4333 37.2501 39.9C35.3168 41.3333 32.8001 42.05 29.7001 42.05C25.8335 42.05 22.7001 40.8666 20.3001 38.5C18.9869 37.1867 18.038 35.6836 17.4534 33.9905C16.4048 33.775 15.9856 33.4855 15.0001 32.5C14.5023 32.0022 13.5001 30.5 13.5001 30.5C13.5001 30.5 13.1962 27.9806 13.0001 27C12.7651 25.8249 12.5301 24.9811 12.347 24.4169C12.2225 24.1989 12.0858 23.8979 11.9364 23.5C11.3122 25.3603 11.0001 27.3603 11.0001 29.5C11.0001 34.6 12.7501 38.9 16.2501 42.4C19.7835 45.9 24.2501 47.65 29.6501 47.65C34.7501 47.65 38.8835 46.1333 42.0501 43.1C45.2168 40.0333 46.8001 36.1 46.8001 31.3ZM13.5057 20.5213C13.5837 20.8175 14.4453 24.1426 14.5001 26.5C14.5322 27.8803 14.5001 30 14.5001 30C14.5001 30 14.6668 31 16.5001 31.5C16.6156 31.5315 16.7464 31.5501 16.8816 31.5598C16.8789 31.5399 16.8762 31.52 16.8736 31.5C16.7913 30.8714 16.7501 30.2214 16.7501 29.55C16.7501 25.95 17.9335 22.95 20.3001 20.55C22.6668 18.15 25.6835 16.95 29.3501 16.95C31.6168 16.95 33.6668 17.4666 35.5001 18.5C37.3335 19.5 38.7168 20.8333 39.6501 22.5L44.6001 19.65C43.1001 17.1166 41.0001 15.1 38.3001 13.6C35.6001 12.1 32.6168 11.35 29.3501 11.35C24.1501 11.35 19.7835 13.1166 16.2501 16.65C15.0515 17.8486 14.2537 19.139 13.5057 20.5213ZM64.8068 21.55C61.0401 21.55 58.4734 23.1 57.1068 26.2V22H51.7068V47H57.1068V34.4C57.1068 31.8333 57.8734 30 59.4068 28.9C60.9401 27.7666 62.7401 27.2666 64.8068 27.4V21.55ZM71.8747 36.8C72.2747 38.7 73.1914 40.1666 74.6247 41.2C76.0581 42.2 77.8081 42.7 79.8747 42.7C82.7414 42.7 84.8914 41.6666 86.3247 39.6L90.7747 42.2C88.3081 45.8333 84.6581 47.65 79.8247 47.65C75.7581 47.65 72.4747 46.4166 69.9747 43.95C67.4747 41.45 66.2247 38.3 66.2247 34.5C66.2247 30.7666 67.4581 27.65 69.9247 25.15C72.3914 22.6166 75.5581 21.35 79.4247 21.35C83.0914 21.35 86.0914 22.6333 88.4247 25.2C90.7914 27.7666 91.9747 30.8833 91.9747 34.55C91.9747 35.1166 91.9081 35.8666 91.7747 36.8H71.8747ZM71.8247 32.4H86.5247C86.1581 30.3666 85.3081 28.8333 83.9747 27.8C82.6747 26.7666 81.1414 26.25 79.3747 26.25C77.3747 26.25 75.7081 26.8 74.3747 27.9C73.0414 29 72.1914 30.5 71.8247 32.4ZM103.58 41.2C102.146 40.1666 101.23 38.7 100.83 36.8H120.73C120.863 35.8666 120.93 35.1166 120.93 34.55C120.93 30.8833 119.746 27.7666 117.38 25.2C115.046 22.6333 112.046 21.35 108.38 21.35C104.513 21.35 101.346 22.6166 98.8798 25.15C96.4131 27.65 95.1798 30.7666 95.1798 34.5C95.1798 38.3 96.4298 41.45 98.9298 43.95C101.43 46.4166 104.713 47.65 108.78 47.65C113.613 47.65 117.263 45.8333 119.73 42.2L115.28 39.6C113.846 41.6666 111.696 42.7 108.83 42.7C106.763 42.7 105.013 42.2 103.58 41.2ZM115.48 32.4H100.78C101.146 30.5 101.996 29 103.33 27.9C104.663 26.8 106.33 26.25 108.33 26.25C110.096 26.25 111.63 26.7666 112.93 27.8C114.263 28.8333 115.113 30.3666 115.48 32.4Z" fill="#007AFE"/>
</svg>
